<svg width="100" height="100" viewBox="0 0 100 100" fill="none" xmlns="http://www.w3.org/2000/svg">
<g clip-path="url(#clip0_1833_16436)">
<path d="M50 100C77.6142 100 100 77.6142 100 50C100 22.3858 77.6142 0 50 0C22.3858 0 0 22.3858 0 50C0 77.6142 22.3858 100 50 100Z" fill="#17768C"/>
<path d="M19.2793 26.725C19.2266 26.9008 19.2402 27.0961 19.334 27.2699C19.5215 27.6195 19.9551 27.7504 20.3047 27.5629L41.0312 16.4652C43.9121 14.9222 47.2207 14.5941 50.3496 15.5414L77.123 23.6429C77.502 23.7582 77.9023 23.5433 78.0176 23.1644C78.1328 22.7855 77.918 22.3851 77.5391 22.2719L50.7656 14.1703C47.2715 13.1136 43.5742 13.4789 40.3555 15.2035L19.6289 26.3011C19.4551 26.3949 19.334 26.5492 19.2812 26.725H19.2793Z" fill="#F9C744"/>
<path d="M35.4473 19.8789L35.2363 20.5742C34.7617 22.1445 35.9375 23.7266 37.5762 23.7246L43.3281 23.7207C44.3945 23.7207 44.8125 22.3379 43.9258 21.7461L39.1406 18.5527C37.7773 17.6426 35.9219 18.3086 35.4473 19.877V19.8789Z" fill="#F39E22"/>
<path d="M56.293 15.1578L56.584 15.7007C57.2402 16.9253 58.8926 17.1695 59.875 16.187L63.3203 12.7378C63.959 12.0992 63.3809 11.0191 62.4941 11.1949L57.7129 12.1499C56.3496 12.4214 55.6367 13.9331 56.293 15.1578Z" fill="#F39E22"/>
<path d="M67.9043 18.699L68.1621 19.1814C68.7441 20.2693 70.2109 20.4842 71.082 19.6131L74.1387 16.5525C74.7051 15.9861 74.1934 15.0271 73.4063 15.1853L69.1641 16.033C67.9551 16.2752 67.3223 17.615 67.9043 18.701V18.699Z" fill="#F39E22"/>
<path d="M74.752 21.8916L74.5938 22.415C74.2363 23.5947 75.1211 24.7841 76.3535 24.7841H80.6797C81.4824 24.7802 81.7969 23.7412 81.1289 23.2959L77.5313 20.8955C76.5059 20.2119 75.1113 20.7119 74.7539 21.8916H74.752Z" fill="#F39E22"/>
<path d="M61.7871 19.2742L61.2441 19.5652C60.0195 20.2215 59.7754 21.8738 60.7578 22.8563L64.207 26.3016C64.8457 26.9402 65.9258 26.3621 65.75 25.4754L64.7949 20.6941C64.5234 19.3309 63.0117 18.618 61.7871 19.2742Z" fill="#F39E22"/>
<path d="M48.9277 15.7764L48.4512 16.1886C47.375 17.1163 47.502 18.8194 48.7031 19.5792L52.9141 22.2432C53.6953 22.7374 54.6426 21.919 54.2676 21.0753L52.2461 16.5206C51.6699 15.2218 50.0039 14.8487 48.9277 15.7764Z" fill="#F39E22"/>
<path d="M27.3848 21.1829L28.0801 21.3939C29.6504 21.8685 31.2324 20.6927 31.2305 19.054L31.2266 13.3021C31.2266 12.2357 29.8438 11.8177 29.252 12.7044L26.0586 17.4896C25.1484 18.8528 25.8145 20.7083 27.3828 21.1829H27.3848Z" fill="#F39E22"/>
<path d="M41.4375 13.522L41.9824 13.9243C43.2129 14.8306 44.9687 14.2896 45.4766 12.8501L47.2637 7.79737C47.5957 6.85987 46.5098 6.063 45.7148 6.6587L41.4219 9.86769C40.1992 10.7817 40.2051 12.6196 41.4355 13.5239L41.4375 13.522Z" fill="#F39E22"/>
<path d="M80.7207 73.2711C80.7734 73.0953 80.7598 72.9 80.666 72.7262C80.4785 72.3766 80.0449 72.2457 79.6953 72.4332L58.9687 83.5309C56.0879 85.0738 52.7793 85.402 49.6504 84.4547L22.8769 76.3531C22.498 76.2379 22.0977 76.4528 21.9844 76.8317C21.8711 77.2106 22.084 77.6109 22.4629 77.7242L49.2363 85.8258C52.7305 86.8824 56.4277 86.5172 59.6465 84.7926L80.373 73.6949C80.5469 73.6012 80.668 73.4469 80.7207 73.2711Z" fill="#F39E22"/>
<path d="M64.5527 80.1152L64.7637 79.4199C65.2383 77.8496 64.0625 76.2676 62.4238 76.2695L56.6719 76.2734C55.6055 76.2734 55.1875 77.6563 56.0742 78.248L60.8594 81.4414C62.2227 82.3516 64.0781 81.6856 64.5527 80.1172V80.1152Z" fill="#EA792E"/>
<path d="M43.707 84.8355L43.416 84.2926C42.7598 83.0679 41.1074 82.8238 40.125 83.8062L36.6797 87.2554C36.041 87.8941 36.6191 88.9742 37.5059 88.7984L42.2871 87.8433C43.6504 87.5718 44.3633 86.0601 43.707 84.8355Z" fill="#EA792E"/>
<path d="M32.0957 81.2965L31.8379 80.8141C31.2559 79.7262 29.7891 79.5113 28.918 80.3824L25.8613 83.443C25.2949 84.0094 25.8066 84.9684 26.5937 84.8102L30.8359 83.9625C32.0449 83.7203 32.6777 82.3805 32.0957 81.2945V81.2965Z" fill="#EA792E"/>
<path d="M25.248 78.1035L25.4062 77.5801C25.7637 76.4004 24.8789 75.2109 23.6465 75.2109H19.3203C18.5176 75.2148 18.2031 76.2539 18.8711 76.6992L22.4687 79.0996C23.4941 79.7832 24.8887 79.2832 25.2461 78.1035H25.248Z" fill="#EA792E"/>
<path d="M38.2129 80.7201L38.7559 80.4291C39.9805 79.7728 40.2246 78.1205 39.2422 77.1381L35.793 73.6927C35.1543 73.0541 34.0742 73.6322 34.25 74.5189L35.2051 79.3002C35.4766 80.6634 36.9883 81.3763 38.2129 80.7201Z" fill="#EA792E"/>
<path d="M51.0723 84.2179L51.5488 83.8058C52.625 82.8781 52.498 81.175 51.2969 80.4152L47.0859 77.7511C46.3047 77.257 45.3574 78.0754 45.7324 78.9191L47.7539 83.4738C48.3301 84.7726 49.9961 85.1457 51.0723 84.2179Z" fill="#EA792E"/>
<path d="M72.6152 78.8132L71.9199 78.6023C70.3496 78.1277 68.7676 79.3035 68.7695 80.9421L68.7734 86.6941C68.7734 87.7605 70.1563 88.1785 70.748 87.2917L73.9414 82.5066C74.8516 81.1433 74.1855 79.2878 72.6172 78.8132H72.6152Z" fill="#EA792E"/>
<path d="M58.5625 86.4754L58.0176 86.0731C56.7871 85.1668 55.0312 85.7078 54.5234 87.1473L52.7363 92.2C52.4043 93.1375 53.4902 93.9344 54.2852 93.3387L58.5781 90.1297C59.8008 89.2156 59.7949 87.3777 58.5645 86.4735L58.5625 86.4754Z" fill="#EA792E"/>
<path d="M22.1094 56.9551L20.7832 55.627L20.5195 55.3633H7.97851C6.94531 55.3633 6.52734 56.6953 7.37695 57.2852L10.6699 59.5762C11.4414 60.1133 11.4414 61.2559 10.6699 61.791L7.37695 64.082C6.52734 64.6719 6.94531 66.0039 7.97851 66.0039H28.291C29.082 66.0039 29.7988 65.6836 30.3184 65.1641L22.1094 56.9551Z" fill="#EA792E"/>
<path d="M16.9473 35.0898C16.3984 35.6387 16.0605 36.3945 16.0605 37.2324V47.1309C16.0605 48.4473 16.3437 49.7324 16.8809 50.9082C17.3281 51.8926 17.9512 52.7988 18.7305 53.5781L20.5176 55.3672L20.7812 55.6309L22.1074 56.959L30.3164 65.168C30.8359 64.6484 31.1562 63.9316 31.1562 63.1406V49.3047L16.9453 35.0918L16.9473 35.0898Z" fill="#DD5E26"/>
<path d="M92.623 64.082L89.3301 61.791C88.5586 61.2539 88.5586 60.1113 89.3301 59.5762L92.623 57.2852C93.4727 56.6953 93.0547 55.3633 92.0215 55.3633H79.4824L79.2188 55.627L77.8926 56.9551L69.6836 65.1641C70.2031 65.6836 70.9199 66.0039 71.7109 66.0039H92.0234C93.0566 66.0039 93.4746 64.6719 92.625 64.082H92.623Z" fill="#F39E22"/>
<path d="M83.0527 35.0879L68.8418 49.3008V63.1367C68.8418 63.9277 69.1621 64.6445 69.6816 65.1641L77.8906 56.9551L79.2168 55.627L79.4805 55.3633L81.2676 53.5742C82.0469 52.7949 82.6719 51.8887 83.1172 50.9043C83.6543 49.7305 83.9375 48.4434 83.9375 47.127V37.2285C83.9375 36.3906 83.5996 35.6348 83.0508 35.0859L83.0527 35.0879Z" fill="#EA792E"/>
<path d="M35.7246 57.2539C35.9023 57.0762 36.0977 56.9375 36.3672 56.9375C36.5508 56.9375 36.7012 57 36.8086 57.1094C36.9629 57.2695 36.9805 57.4824 36.9805 57.7246V64.4102C36.9805 64.6914 36.9629 64.7949 36.8945 64.9336C36.8145 65.0879 36.6484 65.209 36.3945 65.209C36.1406 65.209 35.9746 65.0879 35.8945 64.9336C35.8262 64.7949 35.8086 64.6914 35.8086 64.4102V58.7187L34.998 59.5293C34.8027 59.7246 34.7168 59.7871 34.5898 59.8223C34.418 59.8691 34.2285 59.8164 34.0781 59.668C33.9277 59.5195 33.8828 59.3398 33.9297 59.168C33.9648 59.041 34.0273 58.9492 34.2227 58.7539L35.7207 57.2559L35.7246 57.2539Z" fill="#FFDB76"/>
<path d="M42.0762 65.2344C40.7773 65.2344 39.7207 64.3496 39.7207 62.8906V59.2617C39.7207 57.8027 40.7773 56.918 42.0762 56.918C43.375 56.918 44.4414 57.8027 44.4414 59.2617V62.8906C44.4414 64.3496 43.3848 65.2344 42.0762 65.2344ZM43.2715 59.3086C43.2715 58.5273 42.8242 57.9766 42.0762 57.9766C41.3281 57.9766 40.8926 58.5273 40.8926 59.3086V62.8457C40.8926 63.6269 41.3398 64.1777 42.0762 64.1777C42.8125 64.1777 43.2715 63.6269 43.2715 62.8457V59.3086Z" fill="#FFDB76"/>
<path d="M50.9512 65.2344C49.6523 65.2344 48.5957 64.3496 48.5957 62.8906V59.2617C48.5957 57.8027 49.6523 56.918 50.9512 56.918C52.25 56.918 53.3164 57.8027 53.3164 59.2617V62.8906C53.3164 64.3496 52.2598 65.2344 50.9512 65.2344ZM52.1465 59.3086C52.1465 58.5273 51.6992 57.9766 50.9512 57.9766C50.2031 57.9766 49.7676 58.5273 49.7676 59.3086V62.8457C49.7676 63.6269 50.2148 64.1777 50.9512 64.1777C51.6875 64.1777 52.1465 63.6269 52.1465 62.8457V59.3086Z" fill="#FFDB76"/>
<path d="M57.0723 65.2344C55.7734 65.2344 54.7168 64.3496 54.7168 62.8906V59.2617C54.7168 57.8027 55.7734 56.918 57.0723 56.918C58.3711 56.918 59.4375 57.8027 59.4375 59.2617V62.8906C59.4375 64.3496 58.3809 65.2344 57.0723 65.2344ZM58.2676 59.3086C58.2676 58.5273 57.8203 57.9766 57.0723 57.9766C56.3242 57.9766 55.8887 58.5273 55.8887 59.3086V62.8457C55.8887 63.6269 56.3359 64.1777 57.0723 64.1777C57.8086 64.1777 58.2676 63.6269 58.2676 62.8457V59.3086Z" fill="#FFDB76"/>
<path d="M63.1934 65.2344C61.8945 65.2344 60.8379 64.3496 60.8379 62.8906V59.2617C60.8379 57.8027 61.8945 56.918 63.1934 56.918C64.4922 56.918 65.5586 57.8027 65.5586 59.2617V62.8906C65.5586 64.3496 64.502 65.2344 63.1934 65.2344ZM64.3887 59.3086C64.3887 58.5273 63.9414 57.9766 63.1934 57.9766C62.4453 57.9766 62.0098 58.5273 62.0098 59.3086V62.8457C62.0098 63.6269 62.457 64.1777 63.1934 64.1777C63.9297 64.1777 64.3887 63.6269 64.3887 62.8457V59.3086Z" fill="#FFDB76"/>
<path d="M80.5742 36.8594H19.5273C19.0829 36.8594 18.7227 37.2196 18.7227 37.6641V53.1328C18.7227 53.5772 19.0829 53.9375 19.5273 53.9375H80.5742C81.0186 53.9375 81.3789 53.5772 81.3789 53.1328V37.6641C81.3789 37.2196 81.0186 36.8594 80.5742 36.8594Z" fill="#BA4111"/>
<path d="M76.0605 42.7969C73.9492 41.0391 69.9355 39.8516 65.3281 39.8516C60.7207 39.8516 56.707 41.0391 54.5957 42.7969H53.0176V45.627C53.0176 48.8164 58.5293 51.4004 65.3262 51.4004C72.123 51.4004 77.6348 48.8145 77.6348 45.627V42.7969H76.0566H76.0605Z" fill="#EAA60A"/>
<path d="M65.3281 48.5703C72.126 48.5703 77.6367 45.9855 77.6367 42.7969C77.6367 39.6083 72.126 37.0234 65.3281 37.0234C58.5303 37.0234 53.0195 39.6083 53.0195 42.7969C53.0195 45.9855 58.5303 48.5703 65.3281 48.5703Z" fill="#FCC430"/>
<path d="M65.3359 47.2109C70.9494 47.2109 75.5 45.0764 75.5 42.4434C75.5 39.8103 70.9494 37.6758 65.3359 37.6758C59.7225 37.6758 55.1719 39.8103 55.1719 42.4434C55.1719 45.0764 59.7225 47.2109 65.3359 47.2109Z" fill="#FFDB76"/>
<path d="M65.3359 38.1953C70.7637 38.1953 75.1973 40.1914 75.4844 42.7031C75.4941 42.6172 75.5 42.5313 75.5 42.4434C75.5 39.8105 70.9492 37.6758 65.3359 37.6758C59.7227 37.6758 55.1719 39.8105 55.1719 42.4434C55.1719 42.5313 55.1777 42.6172 55.1875 42.7031C55.4746 40.1914 59.9082 38.1953 65.3359 38.1953Z" fill="#EAA60A"/>
<path d="M45.0508 42.2539C42.9395 40.4961 38.9258 39.3086 34.3184 39.3086C29.7109 39.3086 25.6973 40.4961 23.5859 42.2539H22.0078V45.084C22.0078 48.2734 27.5195 50.8574 34.3164 50.8574C41.1133 50.8574 46.625 48.2715 46.625 45.084V42.2539H45.0469H45.0508Z" fill="#EAA60A"/>
<path d="M34.3184 48.0273C41.1162 48.0273 46.627 45.4425 46.627 42.2539C46.627 39.0653 41.1162 36.4805 34.3184 36.4805C27.5205 36.4805 22.0098 39.0653 22.0098 42.2539C22.0098 45.4425 27.5205 48.0273 34.3184 48.0273Z" fill="#FCC430"/>
<path d="M34.3262 46.6719C39.9396 46.6719 44.4902 44.5374 44.4902 41.9043C44.4902 39.2712 39.9396 37.1367 34.3262 37.1367C28.7127 37.1367 24.1621 39.2712 24.1621 41.9043C24.1621 44.5374 28.7127 46.6719 34.3262 46.6719Z" fill="#FFDB76"/>
<path d="M34.3262 37.6523C39.7539 37.6523 44.1875 39.6484 44.4746 42.1602C44.4844 42.0742 44.4902 41.9883 44.4902 41.9004C44.4902 39.2676 39.9395 37.1328 34.3262 37.1328C28.7129 37.1328 24.1621 39.2676 24.1621 41.9004C24.1621 41.9883 24.168 42.0742 24.1777 42.1602C24.4648 39.6484 28.8984 37.6523 34.3262 37.6523Z" fill="#EAA60A"/>
<path d="M63.8398 35.6094C61.7285 33.8516 57.7148 32.6641 53.1074 32.6641C48.5 32.6641 44.4863 33.8516 42.375 35.6094H40.7969V38.4395C40.7969 41.6289 46.3086 44.2129 53.1055 44.2129C59.9023 44.2129 65.4141 41.627 65.4141 38.4395V35.6094H63.8359H63.8398Z" fill="#EAA60A"/>
<path d="M53.1094 41.3828C59.9072 41.3828 65.418 38.798 65.418 35.6094C65.418 32.4208 59.9072 29.8359 53.1094 29.8359C46.3115 29.8359 40.8008 32.4208 40.8008 35.6094C40.8008 38.798 46.3115 41.3828 53.1094 41.3828Z" fill="#FCC430"/>
<path d="M53.1172 40.0234C58.7306 40.0234 63.2812 37.8889 63.2812 35.2559C63.2812 32.6228 58.7306 30.4883 53.1172 30.4883C47.5037 30.4883 42.9531 32.6228 42.9531 35.2559C42.9531 37.8889 47.5037 40.0234 53.1172 40.0234Z" fill="#FFDB76"/>
<path d="M53.1172 31.0078C58.5449 31.0078 62.9785 33.0039 63.2656 35.5156C63.2754 35.4297 63.2812 35.3438 63.2812 35.2559C63.2812 32.623 58.7305 30.4883 53.1172 30.4883C47.5039 30.4883 42.9531 32.623 42.9531 35.2559C42.9531 35.3438 42.959 35.4297 42.9688 35.5156C43.2559 33.0039 47.6895 31.0078 53.1172 31.0078Z" fill="#EAA60A"/>
<path d="M57.7266 35.6055C57.2187 35.377 56.6035 35.2051 55.8926 35.0957C55.2422 34.9961 54.3945 34.8984 53.3789 34.8047C52.0605 34.6816 51.502 34.5801 51.2656 34.5156C51.1035 34.4727 50.916 34.3984 50.916 34.2168C50.916 34.0508 51.0742 33.9375 51.4277 33.8477C51.8574 33.7402 52.4414 33.6855 53.1621 33.6855C53.9453 33.6855 54.5391 33.752 54.9277 33.8809C55.2988 34.0039 55.5039 34.1895 55.5566 34.4492L55.6035 34.6738L58.1875 34.5859L58.166 34.3691C58.1094 33.8164 57.6035 33.3809 56.6582 33.0762C56.0996 32.8965 55.4316 32.7715 54.6621 32.7012V31.8281H51.8574V32.6777C50.9824 32.7422 50.2441 32.877 49.6523 33.084C48.7695 33.3926 48.3223 33.7891 48.3223 34.2617C48.3223 34.6836 48.6855 35.0332 49.4004 35.3008C50.0762 35.5527 51.1172 35.7402 52.582 35.873C53.8867 35.9922 54.8184 36.1094 55.3496 36.2266C55.748 36.3145 55.9258 36.4395 55.9258 36.6309C55.9258 36.8223 55.7383 36.959 55.3379 37.0703C54.8789 37.1992 54.248 37.2637 53.4668 37.2637C52.623 37.2637 51.8984 37.1816 51.3145 37.0234C50.7832 36.877 50.4961 36.6445 50.4375 36.3105L50.3965 36.082L47.8223 36.1758L47.8438 36.3906C47.8984 36.957 48.4102 37.4258 49.3613 37.7852C49.9902 38.0215 50.8281 38.1797 51.8594 38.2598V38.9063H54.6641V38.2832C55.6191 38.2188 56.4414 38.0703 57.1113 37.8359C58.0625 37.5039 58.5469 37.082 58.5469 36.5781C58.5469 36.1777 58.2715 35.8516 57.7285 35.6055H57.7266Z" fill="#EAA60A"/>
<path d="M59.959 31.25C57.8477 29.4922 53.834 28.3047 49.2266 28.3047C44.6191 28.3047 40.6055 29.4922 38.4941 31.25H36.916V34.0801C36.916 37.2695 42.4277 39.8535 49.2246 39.8535C56.0215 39.8535 61.5332 37.2676 61.5332 34.0801V31.25H59.9551H59.959Z" fill="#EAA60A"/>
<path d="M49.2266 37.0234C56.0244 37.0234 61.5352 34.4386 61.5352 31.25C61.5352 28.0614 56.0244 25.4766 49.2266 25.4766C42.4287 25.4766 36.918 28.0614 36.918 31.25C36.918 34.4386 42.4287 37.0234 49.2266 37.0234Z" fill="#FCC430"/>
<path d="M49.2344 35.668C54.8478 35.668 59.3984 33.5335 59.3984 30.9004C59.3984 28.2673 54.8478 26.1328 49.2344 26.1328C43.6209 26.1328 39.0703 28.2673 39.0703 30.9004C39.0703 33.5335 43.6209 35.668 49.2344 35.668Z" fill="#FFDB76"/>
<path d="M49.2344 26.6484C54.6621 26.6484 59.0957 28.6445 59.3828 31.1563C59.3926 31.0703 59.3984 30.9844 59.3984 30.8965C59.3984 28.2637 54.8477 26.1289 49.2344 26.1289C43.6211 26.1289 39.0703 28.2637 39.0703 30.8965C39.0703 30.9844 39.0762 31.0703 39.0859 31.1563C39.373 28.6445 43.8066 26.6484 49.2344 26.6484Z" fill="#EAA60A"/>
</g>
<defs>
<clipPath id="clip0_1833_16436">
<rect width="100" height="100" fill="white"/>
</clipPath>
</defs>
</svg>
